<svg xmlns="http://www.w3.org/2000/svg" width="499.057" height="103.555" viewBox="0 0 499.057 103.555">
  <g id="Group_560" data-name="Group 560" transform="translate(-150.705 -879.228)">
    <path id="Path_1024" data-name="Path 1024" d="M495.58,890.549V985.2H474.094V890.549Z" transform="translate(-116.104 -4.065)" fill="#0991a8"/>
    <path id="Path_1025" data-name="Path 1025" d="M241.706,936.026c0,31.036-18.818,49.853-46.483,49.853-28.086,0-44.517-21.205-44.517-48.168,0-28.367,18.116-49.573,46.062-49.573C225.838,888.139,241.706,909.906,241.706,936.026Zm-68.39,1.264c0,18.537,8.706,31.6,23.031,31.6,14.464,0,22.75-13.762,22.75-32.159,0-16.993-8.145-31.6-22.891-31.6C181.741,905.131,173.316,918.894,173.316,937.29Z" transform="translate(0 -3.2)" fill="#0991a8"/>
    <path id="Path_1026" data-name="Path 1026" d="M316.652,891.42a191.065,191.065,0,0,1,28.929-1.966c17.975,0,29.631,3.229,38.759,10.111,9.83,7.3,16.009,18.958,16.009,35.67,0,18.116-6.6,30.614-15.728,38.338-9.971,8.286-25.137,12.218-43.674,12.218a185.364,185.364,0,0,1-24.295-1.4Zm21.486,77.238a39.4,39.4,0,0,0,7.443.421c19.379.14,32.018-10.533,32.018-33.142.14-19.661-11.375-30.053-29.771-30.053a44.465,44.465,0,0,0-9.69.843Z" transform="translate(-59.578 -3.672)" fill="#0991a8"/>
    <path id="Path_1027" data-name="Path 1027" d="M533.7,890.549h21.2V932.4h.421c2.106-3.651,4.353-7.022,6.46-10.392l21.486-31.457h26.26l-31.316,40.3,33,54.347h-25l-23.172-40.865L554.9,954.3v30.9H533.7Z" transform="translate(-137.502 -4.065)" fill="#0991a8"/>
    <path id="Path_1028" data-name="Path 1028" d="M833.721,888.14c-25.01,0-42.14,16.984-45.461,40.888H810.9c2.179-14.1,10.066-23.9,22.263-23.9,14.746,0,22.889,14.6,22.889,31.6,0,18.4-8.285,32.159-22.748,32.159-7.778,0-13.891-3.857-17.86-10.345-.09.392-.187.783-.274,1.177-.041.187-.283,1.815-.176.8a5.716,5.716,0,0,1-.494,1.824c1.34,2.555.128,6.518-3.638,6.518H796.968a41.419,41.419,0,0,0,2.919,3.581,4.266,4.266,0,0,1,2.11-.584h3.212a4.393,4.393,0,0,1,4.318,4.318h.5a4.643,4.643,0,0,1,3.44,0,2.579,2.579,0,0,1,.761.426,4.657,4.657,0,0,1,.865,6.239,47.087,47.087,0,0,0,17.081,3.036c27.667,0,46.484-18.818,46.484-49.851C878.66,909.9,862.792,888.14,833.721,888.14Z" transform="translate(-228.896 -3.201)" fill="#0991a8"/>
    <g id="Group_559" data-name="Group 559" transform="translate(468 898.164)">
      <path id="Path_1029" data-name="Path 1029" d="M646.2,988.382l-.093.146-.385-.186Z" transform="translate(-645.722 -937.339)" fill="#0991a8"/>
      <path id="Path_1030" data-name="Path 1030" d="M697.179,909.149l-.226.16.146-.226a.354.354,0,0,1,.08.066Z" transform="translate(-664.115 -908.883)" fill="#0991a8"/>
      <path id="Path_1031" data-name="Path 1031" d="M697.179,909.149l-.226.16.146-.226a.354.354,0,0,1,.08.066Z" transform="translate(-664.115 -908.883)" fill="#0991a8"/>
      <path id="Path_1032" data-name="Path 1032" d="M697.179,909.149l-.226.16.146-.226a.354.354,0,0,1,.08.066Z" transform="translate(-664.115 -908.883)" fill="#0991a8"/>
      <path id="Path_1033" data-name="Path 1033" d="M697.3,908.772l-.133.2-.026-.026a2.113,2.113,0,0,0,.159-.174Z" transform="translate(-664.182 -908.772)" fill="#0991a8"/>
      <path id="Path_1034" data-name="Path 1034" d="M646.2,988.382l-.093.146-.385-.186Z" transform="translate(-645.722 -937.339)" fill="#0991a8"/>
    </g>
    <path id="Path_1035" data-name="Path 1035" d="M733.37,931.918a2.42,2.42,0,0,1-.85-.16c-1.659.013-3.32.027-4.979.053-2.47.013-4.94.04-7.4.067l-10.7.079c-.412,0-1.209-.067-1.833-.093-.16-.664-.332-1.328-.492-1.992a2.028,2.028,0,0,0-1.129-1.62H690.653a8.015,8.015,0,0,0-3.771-2.27c-1.9-.545-5.033-4.515-7.144-7.489,1.766-6.254,1.806-13.12.73-14.965a7.946,7.946,0,0,0-.637-.943l.783-3.081a.975.975,0,0,1,.159.066,28.663,28.663,0,0,0,3.068,1.527c.358.04,2.231,2.045,4.2-4.143a.456.456,0,0,1,.571-.279l.133.04a.513.513,0,0,0,.2.013l.265-.04a.419.419,0,0,0,.385-.425c-.013-.943-.053-3.346-.133-3.891a16.99,16.99,0,0,1,.651-4.647l.677-.518a.656.656,0,0,1,.306.744l.093-.332a4.815,4.815,0,0,0-.4-3.7c-1.5-2.749-5.059-6.891-11.9-3.28-9.693,5.1-1.872,15.749-1.872,15.749l-1.115,1.766v.013l-.133.2a.351.351,0,0,1,.08.067l-.226.16.145-.226-.026-.026c-.186-.172-.3-.279-.3-.279l-4.714,2.549a10.436,10.436,0,0,0-4,3.665,9.127,9.127,0,0,0-.465.836,28.631,28.631,0,0,0-2.616,7.649l-3.44,18.789a1.37,1.37,0,0,0,.651,1.315l.452.066c-.465,2.218-.956,7.781,2.363,17.129l-19.586-8.126c-.013-.172-.04-.346-.067-.5h-5.086l-1.394,14.088H639.2l3.971-6.161-.385-.186.478.04.026-.04.067.04h-.093l-.093.146,22.467,10.689a2.922,2.922,0,0,0,3.347-.57,8.88,8.88,0,0,0,2.39-4.621,18.876,18.876,0,0,0,.359-7.795l5.192,7.489,6.1,23.211h.106v4.023h14.819v-1.753l-8.817-3.917-2.841-23.888L678.1,936.043l-.664-1.354H677.4c.651-.943.717-2.629.73-4.714l2.456.756a.05.05,0,0,1,.04.013c2.191.929,5.948,3.771,8.378.757.094-.093.173-.186.253-.252h2.2q6.374,0,12.761-.013c.2,0,.345.013.425.3q1.314,5.5,2.669,10.995c.013.079.026.16.053.279H695.553a1.344,1.344,0,0,0-1.487,1.089,1.439,1.439,0,0,0,1.354,1.912h12.7c.146.584.279,1.169.425,1.752q1.633,6.653,3.253,13.332a2.953,2.953,0,0,1,.053.6c.013,4.953.013,9.892,0,14.845a1.555,1.555,0,0,0,1.62,1.74c.478-.04.943-.013,1.435-.013.053.266.093.518.159.743a5.088,5.088,0,0,0,4.1,3.9,1.042,1.042,0,0,1,.186.067h1.062a.9.9,0,0,1,.172-.067,4.991,4.991,0,0,0,3.93-3.373c.146-.4.226-.837.332-1.248h17.979c.013.08.026.146.04.2a5.172,5.172,0,0,0,3.452,4.25c.306.106.624.159.929.239H748.3l.08-.04c.026-.013.04-.013.066-.026a4.872,4.872,0,0,0,3.8-2.975,12.729,12.729,0,0,0,.531-1.66.131.131,0,0,1,.04-.013h1.793a1.316,1.316,0,0,0,.651-.159,1.226,1.226,0,0,0,.584-.651,1.821,1.821,0,0,0,.133-.691,1.422,1.422,0,0,0-.73-1.327,1.259,1.259,0,0,0-.637-.16c-.664,0-1.342,0-2,.014a.522.522,0,0,1-.518-.306,4.8,4.8,0,0,0-3.4-2.629,5.825,5.825,0,0,0-.969-.08,4.735,4.735,0,0,0-4.262,2.682.689.689,0,0,1-.212.253.652.652,0,0,1-.332.08q-9.1-.02-18.2,0a.523.523,0,0,1-.531-.332,4.824,4.824,0,0,0-8.591-.106c-.265.492-.358.531-.929.372V962.445h39.968a1.372,1.372,0,0,0,1.354-1.513,1.347,1.347,0,0,0-1.354-1.461h-.783c.026-.16.04-.279.067-.4q1.613-7.37,3.227-14.726,1.075-4.86,2.138-9.706c.2-.917.425-1.82.651-2.722Zm-51.229-4.687a7.929,7.929,0,0,1-3.943-1.062c.04-.585.079-1.168.146-1.766l4.581,2.8c-.252,0-.518.014-.784.027Zm59.236,10.358c.119-1.674.279-3.625.4-5.285h8.631c-.253,1.673-.478,3.625-.717,5.3h-8.312Zm8.18.637a1.5,1.5,0,0,1,0,.239c-.306,2.084-.624,4.182-.929,6.267-.04.279-.146.332-.385.332H741.2a3.606,3.606,0,0,1-.372-.027c.16-2.3.332-4.541.492-6.812Zm-1.089,7.436a1.067,1.067,0,0,0-.013.186c-.265,1.779-.544,3.559-.783,5.352-.026.212-.079.332-.186.385a.473.473,0,0,1-.292.04c-1.234-.027-2.483-.04-3.731-.053-.345-.013-.69-.013-1.036-.013-.677-.014-1.354,0-2.058,0,.146-2.018.279-3.944.425-5.882v-.013Zm-14.38-8.06c.052-1.792.093-3.532.133-5.311H741.2c-.119,1.7-.252,3.4-.372,5.086a.247.247,0,0,1-.079.213.4.4,0,0,1-.253.053c-1.779,0-3.559.013-5.351.027h-1.062Zm0,.664h6.679c-.16,2.258-.319,4.515-.492,6.759h-6.347c.053-2.259.106-4.5.16-6.76Zm-.173,7.41h6.321c-.146,1.952-.279,3.891-.411,5.762H733.8c.035-1.966.075-3.865.114-5.763Zm-7.5-.611c-2.284,0-4.568-.013-6.839,0-.306,0-.4-.106-.438-.411-.2-1.408-.425-2.815-.637-4.223-.106-.69-.2-1.368-.306-2.1h8.034c.2,2.244.4,4.461.584,6.705-.162.014-.281.028-.4.028Zm.451.611c.172,1.872.332,3.731.492,5.643-2.431-.04-4.82-.079-7.21-.106-.292-1.859-.558-3.691-.836-5.537Zm-1.2-13.376c.159,1.713.358,3.611.5,5.4h-8.087c-.253-1.74-.6-3.625-.877-5.4Zm-15.921,5.2c-.279-1.115-.558-2.218-.836-3.333-.146-.518-.4-1.315-.544-1.859h8.312c.265,1.726.6,3.691.85,5.4-.04.013-.053.026-.08.026-2.47.013-4.926.027-7.4.053C709.841,937.787,709.8,937.681,709.748,937.5Zm1.859,7.29c-.265-1.089-.544-2.165-.823-3.254-.265-1.049-.531-2.084-.81-3.174h7.662c.332,2.218.664,4.435,1.01,6.679a1.949,1.949,0,0,0-.213.027c-2.164,0-4.342-.013-6.507,0-.2,0-.266-.084-.319-.283Zm1.554,6.055c-.093-.4-.2-.8-.3-1.2-.332-1.328-.664-2.643-1.01-3.97h6.892q.418,2.729.836,5.5h-1.2c-1.633-.026-3.266-.053-4.9-.066-.2-.008-.274-.075-.314-.274Zm7.462,8.631c-1.673,0-3.346,0-5.019.013-.239,0-.265-.133-.319-.318q-.7-2.729-1.4-5.457c-.159-.651-.319-1.3-.491-1.952h6.268c.4,2.6.783,5.139,1.169,7.688-.107.008-.16.021-.214.021Zm7.051,0c-1.965,0-3.944,0-5.909.013-.292,0-.385-.106-.438-.411-.239-1.686-.5-3.373-.756-5.059-.106-.717-.213-1.447-.332-2.191.133-.013.239-.026.332-.026,1.354.026,2.722.04,4.076.066.824.013,1.634.04,2.457.04.265-.013.319.106.345.372.146,1.726.292,3.452.451,5.178.053.651.106,1.315.159,2.019Zm5.391-.04c-.079.013-.119.04-.145.04h-4.077c-.226,0-.239-.146-.253-.319-.186-2.032-.358-4.064-.531-6.1-.04-.372-.053-.744-.079-1.076h5.245c-.054,2.519-.107,4.98-.161,7.45Zm.173-8.087h-5.325c-.173-1.925-.332-3.8-.492-5.669h5.949c-.04,1.92-.093,3.82-.132,5.664Zm.146-6.28h-.425c-1.726,0-3.452-.013-5.179,0-.345.013-.438-.12-.465-.478-.106-1.487-.252-2.974-.385-4.462-.053-.6-.093-1.2-.146-1.832h6.745c-.052,2.225-.092,4.469-.145,6.767Zm-6.653-7.383c-.146-1.713-.346-3.678-.492-5.378h7.436c-.04,1.7-.093,3.664-.133,5.378Zm13.013,14.686-.478,6.825c-.013.279-.16.279-.346.279h-4.979a3.266,3.266,0,0,1-.332-.027c.053-2.483.106-4.953.172-7.383h5.962Zm.053,7.077c.173-2.4.345-4.78.518-7.17a.751.751,0,0,1,.013-.173c2.43.04,4.794.08,7.184.106-.359,2.443-.717,4.82-1.076,7.237Zm13.518-.186c-.066.279-.238.213-.385.213h-5.577c-.106,0-.213-.014-.358-.014q.478-3.247.956-6.414c.04-.252.067-.5.106-.77h6.772c-.519,2.386-1.023,4.683-1.515,6.98Zm1.647-7.595H748.15c.3-2.032.6-4.011.89-5.989h7.237c-.453,2.027-.891,4.032-1.316,5.984Zm2.882-13.2c-.332,1.474-.651,2.961-.97,4.435-.133.6-.252,1.208-.385,1.806-.067.279-.16.359-.412.359-2.191-.013-4.382,0-6.573,0-.093,0-.2-.013-.346-.027a3.831,3.831,0,0,1,.041-.425c.3-2.018.61-4.05.9-6.081.04-.292.133-.359.4-.359,1.58.013,3.16-.013,4.74-.013h2.643c-.013.129-.026.208-.039.3Zm1.3-5.962c-.345,1.554-.69,3.108-1.01,4.674-.066.306-.172.4-.465.4h-1.408c-1.792,0-3.6.013-5.391.026h-.624c.265-1.845.5-3.452.783-5.285h8.153c-.025.115-.012.048-.038.179Z" transform="translate(-174.784)" fill="#0991a8"/>
  </g>
</svg>
