<svg xmlns="http://www.w3.org/2000/svg" width="120" height="24.9" viewBox="0 0 120 24.9">
  <g id="Group_560" data-name="Group 560" transform="translate(-150.705 -879.228)">
    <path id="Path_1024" data-name="Path 1024" d="M479.26,890.549v22.759h-5.166V890.549Z" transform="translate(-273.546 -9.576)" fill="#0991a8"/>
    <path id="Path_1025" data-name="Path 1025" d="M172.587,899.653c0,7.463-4.525,11.987-11.177,11.987-6.753,0-10.7-5.1-10.7-11.582,0-6.821,4.356-11.92,11.076-11.92C168.772,888.138,172.587,893.372,172.587,899.653Zm-16.445.3c0,4.457,2.093,7.6,5.538,7.6,3.478,0,5.47-3.309,5.47-7.733,0-4.086-1.958-7.6-5.5-7.6C158.168,892.224,156.143,895.533,156.143,899.957Z" transform="translate(0 -7.537)" fill="#0991a8"/>
    <path id="Path_1026" data-name="Path 1026" d="M316.652,889.922a45.947,45.947,0,0,1,6.956-.473c4.322,0,7.125.776,9.32,2.431,2.364,1.755,3.849,4.559,3.849,8.577,0,4.356-1.587,7.361-3.782,9.219-2.4,1.992-6.044,2.938-10.5,2.938a44.572,44.572,0,0,1-5.842-.337Zm5.166,18.572a9.472,9.472,0,0,0,1.79.1c4.66.034,7.7-2.533,7.7-7.969.034-4.728-2.735-7.226-7.159-7.226a10.7,10.7,0,0,0-2.33.2Z" transform="translate(-140.369 -8.645)" fill="#0991a8"/>
    <path id="Path_1027" data-name="Path 1027" d="M533.7,890.549h5.1v10.063h.1c.506-.878,1.047-1.688,1.553-2.5l5.166-7.564h6.314l-7.53,9.69,7.935,13.068h-6.011l-5.572-9.826-1.958,2.4v7.43h-5.1Z" transform="translate(-323.964 -9.576)" fill="#0991a8"/>
    <path id="Path_1028" data-name="Path 1028" d="M799.191,888.14c-6.014,0-10.133,4.084-10.931,9.832H793.7c.524-3.39,2.42-5.747,5.353-5.747,3.546,0,5.5,3.511,5.5,7.6,0,4.424-1.992,7.733-5.47,7.733a4.878,4.878,0,0,1-4.294-2.487c-.022.094-.045.188-.066.283-.01.045-.068.436-.042.192a1.373,1.373,0,0,1-.119.439,1.04,1.04,0,0,1-.875,1.567h-3.341a9.958,9.958,0,0,0,.7.861,1.026,1.026,0,0,1,.507-.14h.772a1.056,1.056,0,0,1,1.038,1.038h.12a1.117,1.117,0,0,1,.827,0,.621.621,0,0,1,.183.1,1.12,1.12,0,0,1,.208,1.5,11.323,11.323,0,0,0,4.107.73c6.653,0,11.177-4.525,11.177-11.987C810,893.372,806.182,888.14,799.191,888.14Z" transform="translate(-539.291 -7.538)" fill="#0991a8"/>
    <g id="Group_559" data-name="Group 559" transform="translate(227.001 883.782)">
      <path id="Path_1029" data-name="Path 1029" d="M645.837,988.352l-.022.035-.093-.045Z" transform="translate(-645.722 -976.078)" fill="#0991a8"/>
      <path id="Path_1030" data-name="Path 1030" d="M697.007,909.1l-.054.038.035-.054A.086.086,0,0,1,697.007,909.1Z" transform="translate(-689.057 -909.035)" fill="#0991a8"/>
      <path id="Path_1031" data-name="Path 1031" d="M697.007,909.1l-.054.038.035-.054A.086.086,0,0,1,697.007,909.1Z" transform="translate(-689.057 -909.035)" fill="#0991a8"/>
      <path id="Path_1032" data-name="Path 1032" d="M697.007,909.1l-.054.038.035-.054A.086.086,0,0,1,697.007,909.1Z" transform="translate(-689.057 -909.035)" fill="#0991a8"/>
      <path id="Path_1033" data-name="Path 1033" d="M697.179,908.772l-.032.048-.006-.006A.507.507,0,0,0,697.179,908.772Z" transform="translate(-689.216 -908.772)" fill="#0991a8"/>
      <path id="Path_1034" data-name="Path 1034" d="M645.837,988.352l-.022.035-.093-.045Z" transform="translate(-645.722 -976.078)" fill="#0991a8"/>
    </g>
    <path id="Path_1035" data-name="Path 1035" d="M660.579,891.9a.582.582,0,0,1-.2-.038c-.4,0-.8.006-1.2.013-.594,0-1.188.01-1.779.016l-2.573.019c-.1,0-.291-.016-.441-.022-.038-.16-.08-.319-.118-.479a.488.488,0,0,0-.271-.39h-3.687a1.927,1.927,0,0,0-.907-.546c-.457-.131-1.21-1.086-1.718-1.8a6.633,6.633,0,0,0,.175-3.6,1.907,1.907,0,0,0-.153-.227l.188-.741a.235.235,0,0,1,.038.016,6.882,6.882,0,0,0,.738.367c.086.01.536.492,1.01-1a.11.11,0,0,1,.137-.067l.032.01a.124.124,0,0,0,.048,0l.064-.01a.1.1,0,0,0,.093-.1c0-.227-.013-.8-.032-.936a4.088,4.088,0,0,1,.157-1.117l.163-.125a.158.158,0,0,1,.074.179l.022-.08a1.158,1.158,0,0,0-.1-.89,1.912,1.912,0,0,0-2.861-.789c-2.331,1.226-.45,3.787-.45,3.787l-.268.425v0l-.032.048a.086.086,0,0,1,.019.016l-.054.038.035-.054-.006-.006-.073-.067-1.133.613a2.51,2.51,0,0,0-.962.881,2.2,2.2,0,0,0-.112.2,6.885,6.885,0,0,0-.629,1.839l-.827,4.518a.329.329,0,0,0,.156.316l.109.016a7.86,7.86,0,0,0,.568,4.119l-4.71-1.954c0-.041-.01-.083-.016-.12H637.87l-.335,3.388h.4l.955-1.481-.093-.045.115.01.006-.01.016.01h-.022l-.022.035,5.4,2.57a.7.7,0,0,0,.8-.137,2.135,2.135,0,0,0,.575-1.111,4.539,4.539,0,0,0,.086-1.874l1.248,1.8,1.467,5.581h.026v.967h3.563v-.422l-2.12-.942-.683-5.744-1.97-3.892-.16-.326h-.009a2.245,2.245,0,0,0,.176-1.134l.591.182a.012.012,0,0,1,.01,0c.527.223,1.43.907,2.015.182.023-.022.042-.045.061-.061h.529q1.533,0,3.068,0c.048,0,.083,0,.1.073q.316,1.322.642,2.644c0,.019.006.039.013.067h-2.84a.323.323,0,0,0-.358.262.346.346,0,0,0,.326.46h3.053c.035.14.067.281.1.421q.393,1.6.782,3.206a.71.71,0,0,1,.013.144c0,1.191,0,2.379,0,3.57a.374.374,0,0,0,.39.418c.115-.01.227,0,.345,0,.013.064.022.125.038.179a1.223,1.223,0,0,0,.986.938.254.254,0,0,1,.045.016h.255a.218.218,0,0,1,.041-.016,1.2,1.2,0,0,0,.945-.811c.035-.1.054-.2.08-.3h4.323c0,.019.006.035.01.048a1.244,1.244,0,0,0,.83,1.022c.074.026.15.038.223.057h.255l.019-.01.016-.006a1.171,1.171,0,0,0,.914-.715,3.058,3.058,0,0,0,.128-.4l.01,0h.431a.316.316,0,0,0,.156-.038.3.3,0,0,0,.14-.157.437.437,0,0,0,.032-.166.342.342,0,0,0-.176-.319.3.3,0,0,0-.153-.038c-.16,0-.323,0-.482,0a.126.126,0,0,1-.125-.074,1.154,1.154,0,0,0-.818-.632,1.393,1.393,0,0,0-.233-.019,1.138,1.138,0,0,0-1.025.645.166.166,0,0,1-.051.061.156.156,0,0,1-.08.019q-2.188,0-4.377,0a.126.126,0,0,1-.128-.08,1.16,1.16,0,0,0-2.066-.025c-.064.118-.086.128-.223.089v-3.026h9.61a.33.33,0,0,0,.326-.364.324.324,0,0,0-.326-.351H665.5c.006-.038.01-.067.016-.1q.388-1.772.776-3.541.258-1.169.514-2.334c.048-.22.1-.438.156-.655Zm-12.318-1.127a1.907,1.907,0,0,1-.948-.255c.01-.141.019-.281.035-.425l1.1.673c-.061,0-.125,0-.188.007Zm14.244,2.491c.029-.4.067-.872.1-1.271h2.075c-.061.4-.115.872-.172,1.274h-2Zm1.967.153a.361.361,0,0,1,0,.057c-.074.5-.15,1.006-.223,1.507-.01.067-.035.08-.093.08h-1.694a.867.867,0,0,1-.089-.006c.038-.553.08-1.092.118-1.638Zm-.262,1.788a.261.261,0,0,0,0,.045c-.064.428-.131.856-.188,1.287-.006.051-.019.08-.045.093a.113.113,0,0,1-.07.01c-.3-.006-.6-.01-.9-.013-.083,0-.166,0-.249,0-.163,0-.326,0-.495,0,.035-.485.067-.948.1-1.414v0Zm-3.458-1.938c.013-.431.022-.849.032-1.277h1.678c-.029.409-.061.818-.089,1.223a.059.059,0,0,1-.019.051.1.1,0,0,1-.061.013c-.428,0-.856,0-1.287.006h-.255Zm0,.16h1.606c-.038.543-.077,1.086-.118,1.625h-1.526c.013-.543.025-1.083.038-1.625Zm-.042,1.782h1.52c-.035.469-.067.936-.1,1.385h-1.449c.008-.473.018-.929.027-1.386Zm-1.8-.147c-.549,0-1.1,0-1.644,0-.074,0-.1-.026-.105-.1-.048-.339-.1-.677-.153-1.015-.025-.166-.048-.329-.074-.5h1.932c.048.54.1,1.073.14,1.612-.039,0-.068.007-.1.007Zm.108.147c.041.45.08.9.118,1.357-.585-.01-1.159-.019-1.734-.025-.07-.447-.134-.888-.2-1.331Zm-.288-3.216c.038.412.086.868.12,1.3H656.9c-.061-.418-.144-.872-.211-1.3Zm-3.828,1.25c-.067-.268-.134-.533-.2-.8-.035-.125-.1-.316-.131-.447h2c.064.415.144.888.2,1.3-.01,0-.013.006-.019.006-.594,0-1.184.007-1.779.013C654.921,893.309,654.911,893.284,654.9,893.24Zm.447,1.753c-.064-.262-.131-.521-.2-.782s-.128-.5-.195-.763H656.8c.08.533.16,1.066.243,1.606a.469.469,0,0,0-.051.006c-.52,0-1.044,0-1.565,0-.048,0-.064-.02-.077-.068Zm.374,1.456c-.022-.1-.048-.192-.073-.287-.08-.319-.16-.635-.243-.955h1.657q.1.656.2,1.323h-.289c-.393-.006-.785-.013-1.178-.016-.047,0-.066-.018-.076-.066Zm1.794,2.075c-.4,0-.8,0-1.207,0-.057,0-.064-.032-.077-.076q-.168-.656-.335-1.312c-.038-.157-.077-.313-.118-.469h1.507c.1.625.188,1.236.281,1.849-.026,0-.038.005-.051.005Zm1.7,0c-.472,0-.948,0-1.421,0-.07,0-.093-.026-.105-.1-.057-.405-.12-.811-.182-1.216-.025-.172-.051-.348-.08-.527.032,0,.057-.006.08-.006.326.006.655.01.98.016.2,0,.393.01.591.01.064,0,.077.026.083.089.035.415.07.83.108,1.245.013.157.026.316.038.485Zm1.3-.01c-.019,0-.029.01-.035.01h-.98c-.054,0-.057-.035-.061-.077-.045-.489-.086-.977-.128-1.467-.01-.089-.013-.179-.019-.259h1.261c-.013.606-.026,1.2-.039,1.791Zm.042-1.945h-1.28c-.042-.463-.08-.914-.118-1.363h1.43c-.01.462-.022.919-.032,1.362Zm.035-1.51h-.1c-.415,0-.83,0-1.245,0-.083,0-.105-.029-.112-.115-.025-.358-.061-.715-.093-1.073-.013-.144-.022-.287-.035-.44h1.622c-.013.535-.022,1.075-.035,1.627Zm-1.6-1.775c-.035-.412-.083-.884-.118-1.293h1.788c-.01.409-.022.881-.032,1.293Zm3.129,3.531L662,898.457c0,.067-.039.067-.083.067h-1.2a.8.8,0,0,1-.08-.007c.013-.6.026-1.191.041-1.775h1.434Zm.013,1.7c.042-.577.083-1.149.125-1.724a.183.183,0,0,1,0-.042c.584.01,1.153.019,1.727.026-.086.587-.172,1.159-.259,1.74Zm3.25-.045c-.016.067-.057.051-.093.051h-1.341c-.026,0-.051,0-.086,0q.115-.781.23-1.542c.01-.061.016-.12.026-.185h1.628c-.125.574-.246,1.126-.364,1.678Zm.4-1.826h-1.638c.073-.489.144-.964.214-1.44h1.74c-.109.487-.214.97-.316,1.439Zm.693-3.174c-.08.354-.156.712-.233,1.066-.032.144-.061.29-.093.434-.016.067-.038.086-.1.086-.527,0-1.054,0-1.581,0-.022,0-.048,0-.083-.006a.925.925,0,0,1,.01-.1c.073-.485.147-.974.216-1.462.01-.07.032-.086.1-.086.38,0,.76,0,1.14,0h.635c0,.031-.006.05-.009.072Zm.313-1.434c-.083.374-.166.747-.243,1.124-.016.074-.041.1-.112.1h-.339c-.431,0-.866,0-1.3.006h-.15c.064-.444.12-.83.188-1.271h1.96c-.006.028,0,.012-.009.043Z" transform="translate(-411.797)" fill="#0991a8"/>
  </g>
</svg>
